<svg xmlns="http://www.w3.org/2000/svg" xmlns:xlink="http://www.w3.org/1999/xlink" width="700" height="188pt" viewBox="0 0 524.52 188"><g id="graph0" class="graph" transform="scale(1 1) rotate(0) translate(4 184)"><title/><g id="a_graph0"><a><polygon fill="#fff" stroke="transparent" points="-4 4 -4 -184 520.52 -184 520.52 4 -4 4"/></a></g><g id="clust1" class="cluster"><title>cluster0</title><g id="a_clust1"><a><path fill="#76b900" fill-opacity=".133" stroke="#76b900" d="M143.04,-8C143.04,-8 496.52,-8 496.52,-8 502.52,-8 508.52,-14 508.52,-20 508.52,-20 508.52,-160 508.52,-160 508.52,-166 502.52,-172 496.52,-172 496.52,-172 143.04,-172 143.04,-172 137.04,-172 131.04,-166 131.04,-160 131.04,-160 131.04,-20 131.04,-20 131.04,-14 137.04,-8 143.04,-8"/><text x="298.28" y="-157.8" font-family="Helvetica,Arial,sans-serif" font-size="14" font-weight="bold" text-anchor="start">Adder</text></a></g></g><g id="clust2" class="cluster"><title>cluster1</title><g id="a_clust2"><a><path fill="#76b900" fill-opacity=".133" stroke="#76b900" d="M151.04,-16C151.04,-16 312.71,-16 312.71,-16 318.71,-16 324.71,-22 324.71,-28 324.71,-28 324.71,-129 324.71,-129 324.71,-135 318.71,-141 312.71,-141 312.71,-141 151.04,-141 151.04,-141 145.04,-141 139.04,-135 139.04,-129 139.04,-129 139.04,-28 139.04,-28 139.04,-22 145.04,-16 151.04,-16"/><text x="180.38" y="-126.8" font-family="Helvetica,Arial,sans-serif" font-size="14" font-weight="bold" text-anchor="start">Custom Scope</text></a></g></g><g id="node1" class="node"><title>kernel0</title><g id="a_node1"><a xlink:title="C:\Dev\warp\warp\tests\test_misc.py:23 (&lt;module&gt;)"><polygon fill="#888" stroke="transparent" points="64.04 -19.5 64.04 -102.5 107.04 -102.5 107.04 -19.5 64.04 -19.5"/><polygon fill="#fff" fill-opacity=".667" stroke="transparent" points="66.54 -75 66.54 -100 105.54 -100 105.54 -75 66.54 -75"/><polygon fill="none" stroke="#000" points="66.54 -75 66.54 -100 105.54 -100 105.54 -75 66.54 -75"/><text x="72.54" y="-84.8" font-family="Helvetica,Arial,sans-serif" font-size="14" font-weight="bold" text-anchor="start">add</text><polygon fill="#bbb" stroke="transparent" points="66.54 -48 66.54 -73 85.54 -73 85.54 -48 66.54 -48"/><polygon fill="none" stroke="#000" points="66.54 -48 66.54 -73 85.54 -73 85.54 -48 66.54 -48"/><text x="71.54" y="-56.8" font-family="Helvetica,Arial,sans-serif" font-size="14" text-anchor="start">a</text><polygon fill="#bbb" stroke="transparent" points="87.54 -48 87.54 -73 105.54 -73 105.54 -48 87.54 -48"/><polygon fill="none" stroke="#000" points="87.54 -48 87.54 -73 105.54 -73 105.54 -48 87.54 -48"/><text x="92.54" y="-56.8" font-family="Helvetica,Arial,sans-serif" font-size="14" text-anchor="start">c</text><polygon fill="#bbb" stroke="transparent" points="66.54 -21 66.54 -46 85.54 -46 85.54 -21 66.54 -21"/><polygon fill="none" stroke="#000" points="66.54 -21 66.54 -46 85.54 -46 85.54 -21 66.54 -21"/><text x="71.54" y="-29.8" font-family="Helvetica,Arial,sans-serif" font-size="14" text-anchor="start">b</text></a></g></g><g id="node4" class="node"><title>arr8663334912</title><g id="a_node4"><a xlink:title="Array a / ptr=8663334912, shape=(1,), dtype=warp.types.float32, requires_grad=False"><ellipse cx="159.06" cy="-81" fill="#d3d3d3" stroke="#000" rx="11.13" ry="12.04"/><text x="159.06" y="-77.3" font-family="Helvetica,Arial,sans-serif" font-size="14" text-anchor="middle">a</text></a></g></g><g id="edge3" class="edge"><title>kernel0:out_0-&gt;arr8663334912</title><g id="a_edge3"><a><path fill="none" stroke="#000" d="M106.54,-60C118.3,-60 130.52,-64.75 140.11,-69.73"/><polygon fill="#000" stroke="#000" points="138.6 -72.9 149.02 -74.81 142.07 -66.82 138.6 -72.9"/></a></g></g><g id="node2" class="node"><title>arr8663335424</title><g id="a_node2"><a xlink:title="Array b / ptr=8663335424, shape=(1,), dtype=warp.types.float32, requires_grad=True"><ellipse cx="159.06" cy="-39" fill="#76b900" stroke="#000" rx="12.04" ry="12.04"/><text x="159.06" y="-35.3" font-family="Helvetica,Arial,sans-serif" font-size="14" text-anchor="middle">b</text></a></g></g><g id="edge1" class="edge"><title>arr8663335424-&gt;kernel0:in_0</title><g id="a_edge1"><a><path fill="none" stroke="#000" d="M148.82,-32.28C130.47,-19.82 89.26,3.68 66.54,-18.5 56.43,-28.37 50.4,-47.45 56.41,-55.86"/><polygon fill="#000" stroke="#000" points="54.99 -59.05 65.54 -60 57.88 -52.68 54.99 -59.05"/></a></g></g><g id="node5" class="node"><title>kernel1</title><g id="a_node5"><a xlink:title="C:\Dev\warp\warp\tests\test_misc.py:30 (&lt;module&gt;)"><polygon fill="#888" stroke="transparent" points="211.08 -25.5 211.08 -108.5 254.08 -108.5 254.08 -25.5 211.08 -25.5"/><polygon fill="#fff" fill-opacity=".667" stroke="transparent" points="213.58 -81 213.58 -106 252.58 -106 252.58 -81 213.58 -81"/><polygon fill="none" stroke="#000" points="213.58 -81 213.58 -106 252.58 -106 252.58 -81 213.58 -81"/><text x="219.58" y="-90.8" font-family="Helvetica,Arial,sans-serif" font-size="14" font-weight="bold" text-anchor="start">add</text><polygon fill="#bbb" stroke="transparent" points="213.58 -54 213.58 -79 232.58 -79 232.58 -54 213.58 -54"/><polygon fill="none" stroke="#000" points="213.58 -54 213.58 -79 232.58 -79 232.58 -54 213.58 -54"/><text x="218.58" y="-62.8" font-family="Helvetica,Arial,sans-serif" font-size="14" text-anchor="start">a</text><polygon fill="#bbb" stroke="transparent" points="234.58 -54 234.58 -79 252.58 -79 252.58 -54 234.58 -54"/><polygon fill="none" stroke="#000" points="234.58 -54 234.58 -79 252.58 -79 252.58 -54 234.58 -54"/><text x="239.58" y="-62.8" font-family="Helvetica,Arial,sans-serif" font-size="14" text-anchor="start">c</text><polygon fill="#bbb" stroke="transparent" points="213.58 -27 213.58 -52 232.58 -52 232.58 -27 213.58 -27"/><polygon fill="none" stroke="#000" points="213.58 -27 213.58 -52 232.58 -52 232.58 -27 213.58 -27"/><text x="218.58" y="-35.8" font-family="Helvetica,Arial,sans-serif" font-size="14" text-anchor="start">b</text></a></g></g><g id="edge5" class="edge"><title>arr8663335424-&gt;kernel1:in_1</title><g id="a_edge5"><a><path fill="none" stroke="#000" d="M171.33,-39C179.47,-39 190.99,-39 202.33,-39"/><polygon fill="#000" stroke="#000" points="202.58 -42.5 212.58 -39 202.58 -35.5 202.58 -42.5"/></a></g></g><g id="node3" class="node"><title>arr8663336960</title><g id="a_node3"><a xlink:title="Array e / ptr=8663336960, shape=(1,), dtype=warp.types.float32, requires_grad=True"><ellipse cx="12.02" cy="-33" fill="#76b900" stroke="#000" rx="12.04" ry="12.04"/><text x="12.02" y="-29.3" font-family="Helvetica,Arial,sans-serif" font-size="14" text-anchor="middle">e</text></a></g></g><g id="edge2" class="edge"><title>arr8663336960-&gt;kernel0:in_1</title><g id="a_edge2"><a><path fill="none" stroke="#000" d="M24.29,-33C32.43,-33 43.95,-33 55.29,-33"/><polygon fill="#000" stroke="#000" points="55.54 -36.5 65.54 -33 55.54 -29.5 55.54 -36.5"/></a></g></g><g id="edge4" class="edge"><title>arr8663334912-&gt;kernel1:in_0</title><g id="a_edge4"><a><path fill="none" stroke="#000" d="M169.89,-76.42C178,-72.97 190.12,-68.55 202.36,-66.78"/><polygon fill="#000" stroke="#000" points="202.88 -70.25 212.58 -66 202.35 -63.27 202.88 -70.25"/></a></g></g><g id="node7" class="node"><title>kernel2</title><g id="a_node7"><a xlink:title="C:\Dev\warp\warp\tests\test_misc.py:33 (&lt;module&gt;)"><polygon fill="#888" stroke="transparent" points="356.71 -48.5 356.71 -131.5 399.71 -131.5 399.71 -48.5 356.71 -48.5"/><polygon fill="#fff" fill-opacity=".667" stroke="transparent" points="359.21 -104 359.21 -129 398.21 -129 398.21 -104 359.21 -104"/><polygon fill="none" stroke="#000" points="359.21 -104 359.21 -129 398.21 -129 398.21 -104 359.21 -104"/><text x="365.21" y="-113.8" font-family="Helvetica,Arial,sans-serif" font-size="14" font-weight="bold" text-anchor="start">add</text><polygon fill="#bbb" stroke="transparent" points="359.21 -77 359.21 -102 378.21 -102 378.21 -77 359.21 -77"/><polygon fill="none" stroke="#000" points="359.21 -77 359.21 -102 378.21 -102 378.21 -77 359.21 -77"/><text x="364.21" y="-85.8" font-family="Helvetica,Arial,sans-serif" font-size="14" text-anchor="start">a</text><polygon fill="#bbb" stroke="transparent" points="380.21 -77 380.21 -102 398.21 -102 398.21 -77 380.21 -77"/><polygon fill="none" stroke="#000" points="380.21 -77 380.21 -102 398.21 -102 398.21 -77 380.21 -77"/><text x="385.21" y="-85.8" font-family="Helvetica,Arial,sans-serif" font-size="14" text-anchor="start">c</text><polygon fill="#bbb" stroke="transparent" points="359.21 -50 359.21 -75 378.21 -75 378.21 -50 359.21 -50"/><polygon fill="none" stroke="#000" points="359.21 -50 359.21 -75 378.21 -75 378.21 -50 359.21 -50"/><text x="364.21" y="-58.8" font-family="Helvetica,Arial,sans-serif" font-size="14" text-anchor="start">b</text></a></g></g><g id="edge8" class="edge"><title>arr8663334912-&gt;kernel2:in_1</title><g id="a_edge8"><a><path fill="none" stroke="#000" d="M167.32,-89.63C175.76,-98.94 190.66,-113.19 207.08,-119 228.45,-126.56 235.75,-122.9 258.08,-119 289.09,-113.59 298.07,-111.77 324.71,-95 338.81,-86.13 338.44,-70.44 348.28,-64.43"/><polygon fill="#000" stroke="#000" points="349.33 -67.78 358.21 -62 347.66 -60.98 349.33 -67.78"/></a></g></g><g id="node6" class="node"><title>arr8663336448</title><g id="a_node6"><a xlink:title="Array c / ptr=8663336448, shape=(1,), dtype=warp.types.float32, requires_grad=False"><ellipse cx="305.4" cy="-74" fill="#d3d3d3" stroke="#000" rx="11.13" ry="12.04"/><text x="305.4" y="-70.3" font-family="Helvetica,Arial,sans-serif" font-size="14" text-anchor="middle">c</text></a></g></g><g id="edge6" class="edge"><title>kernel1:out_0-&gt;arr8663336448</title><g id="a_edge6"><a><path fill="none" stroke="#000" d="M253.58,-66C263.72,-66 274.87,-67.57 284.13,-69.33"/><polygon fill="#000" stroke="#000" points="283.46 -72.76 293.96 -71.38 284.89 -65.91 283.46 -72.76"/></a></g></g><g id="edge7" class="edge"><title>arr8663336448-&gt;kernel2:in_0</title><g id="a_edge7"><a><path fill="none" stroke="#000" d="M316.09,-78.58C324.08,-82.03 336.04,-86.45 348.12,-88.22"/><polygon fill="#000" stroke="#000" points="347.97 -91.72 358.21 -89 348.51 -84.74 347.97 -91.72"/></a></g></g><g id="node8" class="node"><title>arr8663337984</title><g id="a_node8"><a xlink:title="Array result / ptr=8663337984, shape=(1,), dtype=warp.types.float32, requires_grad=True"><ellipse cx="470.12" cy="-89" fill="#76b900" stroke="#000" rx="30.31" ry="12.04"/><text x="470.12" y="-85.3" font-family="Helvetica,Arial,sans-serif" font-size="14" text-anchor="middle">result</text></a></g></g><g id="edge9" class="edge"><title>kernel2:out_0-&gt;arr8663337984</title><g id="a_edge9"><a><path fill="none" stroke="#000" d="M399.21,-89C409.03,-89 419.62,-89 429.52,-89"/><polygon fill="#000" stroke="#000" points="429.52 -92.5 439.52 -89 429.52 -85.5 429.52 -92.5"/></a></g></g></g></svg>